<?xml version="1.0" encoding="utf-8"?>
<!DOCTYPE svg PUBLIC "-//W3C//DTD SVG 1.1//EN" "http://www.w3.org/Graphics/SVG/1.1/DTD/svg11.dtd">
<svg version="1.1" id="Layer_1" xmlns="http://www.w3.org/2000/svg" xmlns:xlink="http://www.w3.org/1999/xlink" x="0px" y="0px"
	 width="30px" height="30px" viewBox="0 0 30 30" enable-background="new 0 0 30 30" xml:space="preserve">
<g>
	<path opacity="0.3" enable-background="new    " d="M24.042,4.973H11.958l-0.002,0.004C10.961,4.94,9.951,5.269,9.158,5.984
		L7.263,7.688l-2.541-2.54l-1.36,4.991L2,15.129l4.991-1.361l4.99-1.361L9.365,9.789l0.972-0.874h0.001
		c0.693-0.602,1.592-0.974,2.579-0.974l11.125-0.002c0.535,0,0.987,0.454,0.987,0.991v10.142c0,0.533-0.452,0.99-0.987,0.99H10.313
		c-0.494,0-0.898,0.403-0.898,0.897v1.168c0,0.494,0.404,0.897,0.898,0.897h13.729c2.177,0,3.958-1.78,3.958-3.955V8.931
		C28,6.754,26.219,4.973,24.042,4.973z"/>
	<path opacity="0.15" enable-background="new    " d="M10.313,25.027c-1.047,0-1.898-0.853-1.898-1.898v-1.168
		c0-1.047,0.852-1.898,1.898-1.898h13.729L24.029,9.931l-11.112,0.01c-0.7,0-1.383,0.259-1.923,0.729l-0.176,0.158l1.87,1.871
		c0.252,0.252,0.351,0.62,0.259,0.964c-0.091,0.344-0.359,0.614-0.703,0.708l-9.981,2.723C2.176,17.117,2.088,17.129,2,17.129
		c-0.262,0-0.517-0.104-0.707-0.293c-0.254-0.254-0.352-0.624-0.258-0.971l2.723-9.979c0.094-0.344,0.363-0.612,0.708-0.704
		c0.085-0.023,0.171-0.034,0.257-0.034c0.262,0,0.517,0.103,0.707,0.293L7.3,7.31l1.189-1.07c0.906-0.816,2.084-1.267,3.316-1.267
		l12.237-0.001C26.775,4.973,29,7.197,29,9.931v10.142c0,2.731-2.225,4.954-4.958,4.954H10.313L10.313,25.027z"/>
	<path opacity="0.15" enable-background="new    " d="M24.042,5.973H11.958l-0.002,0.004C10.961,5.94,9.951,6.269,9.158,6.984
		L7.263,8.688l-2.541-2.54l-1.36,4.991L2,16.129l4.991-1.361l4.99-1.361l-2.616-2.618l0.972-0.874h0.001
		c0.693-0.602,1.592-0.974,2.579-0.974l11.125-0.002c0.535,0,0.987,0.454,0.987,0.991v10.142c0,0.533-0.452,0.99-0.987,0.99H10.313
		c-0.494,0-0.898,0.403-0.898,0.897v1.168c0,0.494,0.404,0.897,0.898,0.897h13.729c2.177,0,3.958-1.78,3.958-3.955V9.931
		C28,7.754,26.219,5.973,24.042,5.973z"/>
	<path fill="#FFFFFF" d="M24.042,5.973H11.958l-0.002,0.004C10.961,5.94,9.951,6.269,9.158,6.984L7.263,8.688l-2.541-2.54
		l-1.36,4.991L2,16.129l4.991-1.361l4.99-1.361l-2.616-2.618l0.972-0.874h0.001c0.693-0.602,1.592-0.974,2.579-0.974l11.125-0.002
		c0.535,0,0.987,0.454,0.987,0.991v10.142c0,0.533-0.452,0.99-0.987,0.99H10.313c-0.494,0-0.898,0.403-0.898,0.897v1.168
		c0,0.494,0.404,0.897,0.898,0.897h13.729c2.177,0,3.958-1.78,3.958-3.955V9.931C28,7.754,26.219,5.973,24.042,5.973z"/>
</g>
</svg>
