<?xml version="1.0" encoding="UTF-8" standalone="no"?>
<svg xmlns="http://www.w3.org/2000/svg" width="96px" height="96px" baseProfile="tiny" version="1.1" xmlns:xlink="http://www.w3.org/1999/xlink" viewBox="0 0 96 96">
 <rect id="BOUNDING_BOX_1_" width="96" height="96" fill="none"/>
 <path id="SHADOW_1_" opacity="0.4" d="M88.023,49c0,29.633-10.364,40-40,40-29.635,0-40-10.367-40-40,0-29.634,10.366-40,40-40,29.636,0,40,10.365,40,40z"/>
 <path id="GREEN_4_1_" d="M8,47.978c0,29.633,10.365,40,40,40,29.637,0,40-10.367,40-40,0-28.985-9.926-39.53-38.091-39.978h-3.818c-28.163,0.448-38.091,10.993-38.091,39.978z" fill="#ED9507"/>
 <path opacity="0.05" d="M74.192,66.38l-5.865-42.479c-0.087-0.654-0.438-1.258-0.965-1.659-0.434-0.329-0.971-0.51-1.514-0.51-0.062,0-0.314,0.02-0.342,0.024l-42.492,5.868c-0.663,0.091-1.25,0.434-1.651,0.966-0.399,0.527-0.576,1.203-0.483,1.852l5.869,42.493c0.091,0.661,0.434,1.248,0.966,1.65,0.432,0.327,0.969,0.508,1.51,0.508,0.055,0,0.277-0.016,0.342-0.024l42.496-5.872c0.659-0.093,1.244-0.437,1.649-0.97,0.402-0.534,0.573-1.191,0.48-1.847z"/>
 <path opacity="0.07" d="M73.697,66.448l-5.866-42.481c-0.069-0.523-0.351-1.006-0.771-1.327-0.347-0.263-0.776-0.408-1.211-0.408-0.048,0-0.243,0.015-0.273,0.02l-42.493,5.868c-0.53,0.073-0.999,0.347-1.321,0.773-0.319,0.421-0.46,0.962-0.387,1.481l5.869,42.493c0.073,0.528,0.347,0.998,0.773,1.32,0.346,0.262,0.775,0.406,1.208,0.406,0.044,0,0.223-0.013,0.273-0.02l42.495-5.872c0.528-0.074,0.996-0.35,1.319-0.775,0.323-0.427,0.459-0.952,0.385-1.478z"/>
 <path opacity="0.1" d="M73.202,66.517l-5.867-42.484c-0.052-0.391-0.262-0.753-0.578-0.994-0.26-0.197-0.582-0.306-0.908-0.306-0.035,0-0.177,0.01-0.205,0.015l-42.492,5.868c-0.397,0.055-0.749,0.26-0.991,0.58-0.239,0.316-0.345,0.721-0.29,1.111l5.869,42.493c0.055,0.396,0.26,0.748,0.58,0.99,0.259,0.196,0.581,0.305,0.906,0.305,0.034,0,0.168-0.01,0.205-0.015l42.494-5.872c0.396-0.056,0.747-0.262,0.989-0.581,0.24-0.321,0.344-0.715,0.288-1.11z"/>
 <path opacity="0.15" d="M66.839,24.098c-0.034-0.261-0.176-0.502-0.385-0.661-0.173-0.131-0.388-0.204-0.605-0.204-0.022,0-0.114,0.006-0.137,0.01l-42.493,5.869c-0.265,0.036-0.5,0.174-0.66,0.386-0.16,0.21-0.23,0.481-0.193,0.741l5.869,42.493c0.037,0.265,0.174,0.499,0.386,0.66,0.173,0.131,0.388,0.203,0.604,0.203,0.023,0,0.114-0.007,0.137-0.01l42.493-5.872c0.546-0.076,0.929-0.582,0.853-1.127l-5.869-42.488z"/>
 <path opacity="0.15" d="M66.344,24.164c-0.018-0.131-0.088-0.25-0.193-0.33-0.087-0.066-0.193-0.102-0.302-0.102-0.022,0-0.046,0.001-0.068,0.005l-42.493,5.869c-0.131,0.018-0.25,0.087-0.33,0.193-0.08,0.105-0.115,0.239-0.097,0.37l5.869,42.493c0.018,0.132,0.087,0.25,0.193,0.33,0.087,0.066,0.193,0.102,0.302,0.102,0.023,0,0.045-0.002,0.068-0.005l42.492-5.872c0.273-0.038,0.465-0.29,0.427-0.563l-5.868-42.49z"/>
 <linearGradient id="Note_2_" y2="33.427" gradientUnits="userSpaceOnUse" y1="83.19" gradientTransform="matrix(0.9906 -0.1369 0.1369 0.9906 -1.4204 -4.6884)" x2="36.077" x1="46.655">
  <stop stop-color="#F0D558" offset="0"/>
  <stop stop-color="#FAF98C" offset="1"/>
 </linearGradient>
 <polygon id="Note_1_" points="71.717,65.722,29.225,71.594,23.356,29.101,65.849,23.232" fill="url(#Note_2_)"/>
 <radialGradient id="SVGID_1_" gradientUnits="userSpaceOnUse" cy="29.097" cx="43.587" r="4.5183">
  <stop stop-color="#000" offset="0"/>
  <stop stop-color="#E4E4E4" stop-opacity="0" offset="1"/>
 </radialGradient>
 <circle cy="29.096" cx="43.587" r="4.519" fill="url(#SVGID_1_)"/>
 <radialGradient id="SVGID_2_" gradientUnits="userSpaceOnUse" cy="27.546" cx="46.44" r="4.2266">
  <stop stop-color="#810000" offset="0"/>
  <stop stop-color="#C90000" offset="1"/>
 </radialGradient>
 <circle cy="27.547" cx="46.44" r="4.227" fill="url(#SVGID_2_)"/>
 <radialGradient id="SVGID_3_" gradientUnits="userSpaceOnUse" cy="26.912" cx="46.807" r="2.3335">
  <stop stop-color="#850000" offset="0"/>
  <stop stop-color="#790000" offset="1"/>
 </radialGradient>
 <circle cy="26.912" cx="46.807" r="2.334" fill="url(#SVGID_3_)"/>
 <radialGradient id="SVGID_4_" gradientUnits="userSpaceOnUse" cy="25.307" cx="48.441" r="3.3152">
  <stop stop-color="#D43200" offset="0"/>
  <stop stop-color="#B70000" offset="1"/>
 </radialGradient>
 <circle cy="25.307" cx="48.442" r="3.315" fill="url(#SVGID_4_)"/>
 <linearGradient id="SVGID_5_" y2="50.183" gradientUnits="userSpaceOnUse" y1="64.639" gradientTransform="matrix(0.9903 -0.1392 0.1392 0.9903 -9.0583 17.7327)" x2="64.146" x1="64.146">
  <stop stop-color="#A40C09" offset="0"/>
  <stop stop-color="#E60809" offset="1"/>
 </linearGradient>
 <path d="M55.458,59.341l11.665-1.639s0.958,4.155,1.195,6.252c0.235,2.097,0.518,7.864,0.518,7.864l-5.8-2.024-5.566,3.862s0.06-4.5-0.445-7.886c-0.504-3.382-1.567-6.429-1.567-6.429z" fill="url(#SVGID_5_)"/>
 <path d="M59.191,67.233l-0.656,0.091-0.348-2.472,0.599-0.083,0.069,0.325c0.019-0.047,0.044-0.096,0.078-0.146s0.079-0.1,0.132-0.148c0.054-0.047,0.117-0.089,0.192-0.125,0.075-0.034,0.162-0.06,0.26-0.074,0.313-0.043,0.55,0.011,0.708,0.163,0.158,0.154,0.258,0.382,0.301,0.683l0.221,1.568-0.657,0.092-0.216-1.529c-0.024-0.171-0.076-0.281-0.156-0.335-0.081-0.051-0.173-0.069-0.278-0.055-0.107,0.015-0.193,0.049-0.255,0.1-0.063,0.055-0.108,0.121-0.136,0.199-0.026,0.083-0.04,0.172-0.041,0.273-0.002,0.102,0.006,0.21,0.021,0.32l0.162,1.153z" fill="#FFF"/>
 <path d="M60.854,65.043l-0.077-0.553,0.432-0.062-0.026-0.187c-0.021-0.143-0.024-0.277-0.014-0.413,0.012-0.134,0.045-0.257,0.104-0.367s0.145-0.203,0.259-0.279c0.114-0.077,0.266-0.128,0.455-0.153,0.147-0.021,0.27-0.031,0.366-0.029,0.098,0.002,0.166,0.004,0.207,0.009l0.013,0.523c-0.036-0.002-0.083-0.002-0.14,0.002-0.056,0.002-0.124,0.011-0.201,0.021-0.156,0.021-0.268,0.078-0.332,0.169-0.063,0.089-0.081,0.24-0.053,0.445l0.023,0.165,0.653-0.091,0.077,0.554-0.652,0.093,0.27,1.916-0.661,0.094-0.271-1.919-0.432,0.062z" fill="#FFF"/>
 <path d="M63.541,65.361c0.035,0.255,0.117,0.435,0.242,0.536,0.126,0.102,0.293,0.138,0.498,0.11,0.138-0.021,0.246-0.053,0.327-0.102,0.079-0.047,0.141-0.089,0.182-0.127l0.313,0.413c-0.026,0.023-0.063,0.055-0.106,0.093-0.045,0.036-0.101,0.077-0.167,0.117-0.065,0.038-0.143,0.074-0.231,0.108-0.088,0.033-0.188,0.059-0.3,0.074-0.409,0.057-0.732-0.016-0.974-0.221-0.24-0.204-0.389-0.507-0.445-0.909-0.027-0.193-0.024-0.376,0.011-0.541,0.035-0.17,0.098-0.32,0.188-0.447,0.091-0.129,0.207-0.237,0.352-0.32,0.142-0.082,0.309-0.138,0.498-0.165,0.121-0.017,0.235-0.02,0.34-0.004,0.104,0.013,0.197,0.031,0.278,0.057,0.08,0.025,0.145,0.053,0.195,0.081,0.051,0.027,0.084,0.046,0.099,0.059l-0.23,0.492c-0.018-0.006-0.045-0.021-0.08-0.04-0.037-0.018-0.078-0.032-0.128-0.049-0.048-0.015-0.102-0.025-0.162-0.034s-0.12-0.009-0.183,0c-0.186,0.027-0.327,0.108-0.423,0.246-0.098,0.137-0.128,0.327-0.094,0.573z" fill="#FFF"/>
 <path d="M65.593,64.005c-0.045-0.034-0.07-0.079-0.068-0.136-0.006-0.1-0.038-0.199-0.095-0.297-0.056-0.1-0.134-0.183-0.225-0.255-0.098-0.073-0.202-0.125-0.314-0.154-0.105-0.029-0.207-0.034-0.301-0.009-0.031,0.011-0.058,0.013-0.085,0.007-0.027-0.007-0.051-0.021-0.072-0.036-0.04-0.029-0.065-0.072-0.069-0.121-0.009-0.049,0.004-0.093,0.031-0.131,0.023-0.032,0.058-0.056,0.1-0.063,0.148-0.036,0.306-0.036,0.469,0,0.165,0.035,0.316,0.107,0.46,0.216,0.143,0.108,0.255,0.237,0.333,0.379,0.076,0.146,0.123,0.3,0.127,0.452,0.002,0.036-0.008,0.072-0.038,0.11-0.029,0.04-0.067,0.063-0.118,0.072-0.048,0.008-0.095-0.005-0.135-0.034zm0.712-0.13c-0.04-0.033-0.065-0.071-0.069-0.123-0.018-0.194-0.079-0.381-0.183-0.56-0.102-0.178-0.239-0.33-0.409-0.46-0.174-0.129-0.358-0.218-0.558-0.267-0.197-0.051-0.395-0.058-0.589-0.025-0.049,0.013-0.092,0.002-0.134-0.03-0.038-0.029-0.063-0.069-0.072-0.118-0.013-0.051,0-0.096,0.027-0.136,0.025-0.034,0.066-0.06,0.117-0.07,0.245-0.044,0.491-0.038,0.737,0.028,0.248,0.062,0.477,0.174,0.687,0.332,0.21,0.159,0.38,0.348,0.509,0.568,0.13,0.219,0.206,0.454,0.231,0.699-0.002,0.047-0.015,0.087-0.04,0.123-0.032,0.041-0.07,0.063-0.117,0.072-0.046,0.014-0.09,0.001-0.137-0.033zm-2.001-2.187c-0.034-0.027-0.06-0.063-0.074-0.11-0.013-0.046-0.002-0.093,0.032-0.138,0.031-0.04,0.069-0.065,0.116-0.069,0.335-0.056,0.666-0.041,0.996,0.044,0.335,0.085,0.641,0.233,0.927,0.447,0.277,0.21,0.504,0.462,0.681,0.759,0.174,0.295,0.281,0.61,0.324,0.945,0,0.054-0.011,0.098-0.038,0.134-0.028,0.038-0.066,0.06-0.115,0.066-0.048,0.008-0.093-0.003-0.131-0.032-0.047-0.034-0.07-0.074-0.074-0.123-0.036-0.282-0.127-0.549-0.28-0.804-0.15-0.254-0.348-0.471-0.587-0.652-0.244-0.183-0.509-0.312-0.793-0.386-0.284-0.076-0.565-0.092-0.844-0.049-0.053,0.008-0.1-0.002-0.14-0.032z" fill="#FFF"/>
 <linearGradient id="DARK_BEVEL_3_" y2="88.134" gradientUnits="userSpaceOnUse" y1="7.4395" x2="48" x1="48">
  <stop stop-color="#000" stop-opacity="0" offset="0.3614"/>
  <stop stop-color="#000" offset="1"/>
 </linearGradient>
 <path id="DARK_BEVEL_2_" opacity="0.23" d="M88,47.978c0,29.633-10.363,40-40,40-29.635,0-40-10.367-40-40,0-29.634,10.365-40,40-40,29.637,0.001,40,10.366,40,40z" fill="url(#DARK_BEVEL_3_)"/>
 <linearGradient id="LIGHT_BEVEL_3_" y2="78.507" gradientUnits="userSpaceOnUse" y1="3.5234" x2="48" x1="48">
  <stop stop-color="#FFF" offset="0"/>
  <stop stop-color="#FFF" stop-opacity="0.18" offset="1"/>
 </linearGradient>
 <path id="LIGHT_BEVEL_1_" opacity="0.4" d="M88,47.978c0,29.633-10.363,40-40,40-29.635,0-40-10.367-40-40,0-29.634,10.365-40,40-40,29.637,0.001,40,10.366,40,40z" fill="url(#LIGHT_BEVEL_3_)"/>
 <linearGradient id="HIGHLIGHTS_2_" y2="87.477" gradientUnits="userSpaceOnUse" y1="8.2319" x2="48" x1="48">
  <stop stop-color="#FFF" offset="0"/>
  <stop stop-color="#FFF" stop-opacity="0" offset="1"/>
 </linearGradient>
 <path id="HIGHLIGHTS_1_" opacity="0.25" d="M48,7.979c-29.635,0-40,10.365-40,40,0,29.633,10.365,40,40,40,29.637,0,40-10.367,40-40,0-29.635-10.363-40-40-40zm0,79.023c-29.159,0-39-9.848-39-39.024,0-29.175,9.841-39.022,39-39.022,29.158,0,39,9.847,39,39.022,0,29.176-9.842,39.024-39,39.024z" fill="url(#HIGHLIGHTS_2_)"/>
</svg>